<svg width="104" height="116" viewBox="0 0 104 116" fill="none" xmlns="http://www.w3.org/2000/svg">
<path d="M45.3571 55.2323C41.6425 54.1709 38.3757 52.2166 35.5235 49.4874C34.628 49.8075 33.7159 50.1276 32.7873 50.4308C32.3561 50.5656 31.925 50.515 31.4772 50.3466C30.6813 50.0433 30.2004 49.4537 29.8521 48.7292C29.3712 47.769 28.7577 46.8929 28.2768 45.9326C27.8456 45.0397 27.2154 44.2647 26.8506 43.3381C26.6682 42.8833 26.1873 42.58 26.1873 42.0072C25.7562 41.2996 26.1707 40.6763 26.4195 40.0529C26.4858 39.8845 26.5687 39.6655 26.718 39.5981C27.3149 39.3285 27.6134 38.722 28.1109 38.3514C28.3431 38.1829 28.5918 37.9976 28.8572 37.7954C28.4757 35.858 28.1441 33.9206 28.1441 31.9326C28.1441 29.9615 28.4923 28.0578 28.8572 26.1709C28.2104 25.5644 27.6134 24.9747 26.9833 24.4188C26.3366 23.846 25.9551 23.1384 26.0381 22.3971C26.0878 21.9928 26.2039 21.5548 26.4029 21.2178C27.0165 20.2238 27.5803 19.1793 28.1773 18.1685C28.6582 17.3598 29.0727 16.5174 29.6034 15.7256C29.8853 15.3213 30.0511 14.8496 30.333 14.4284C30.8803 13.6366 31.9747 13.2491 32.8702 13.5187C33.6662 13.7545 34.4124 14.1083 35.225 14.2599C35.3079 14.2768 35.3742 14.3947 35.4571 14.4789C38.326 11.7665 41.5928 9.82912 45.3405 8.70036C45.4898 8.24549 45.5229 7.75692 45.7053 7.2852C45.838 6.93141 45.8048 6.49338 45.8712 6.1059C46.0536 5.09507 46.6672 4.50542 47.546 4.20217C47.8611 4.10108 48.1762 4 48.5576 4C50.8792 4.03369 53.2008 4.03369 55.5224 4C56.1857 4 56.7495 4.26955 57.2802 4.5728C57.7611 4.82551 58.0264 5.36462 58.1591 5.87004C58.3912 6.79663 58.5239 7.74007 58.7063 8.71721C62.4375 9.79543 65.7043 11.7329 68.5565 14.4621C69.452 14.142 70.3641 13.8219 71.2927 13.5187C71.7239 13.3839 72.155 13.4344 72.6028 13.6029C73.3987 13.9061 73.8796 14.4958 74.2279 15.2202C74.7088 16.1805 75.3223 17.0566 75.8032 18.0168C76.2344 18.9097 76.8646 19.6847 77.2294 20.6113C77.4118 21.0662 77.8927 21.3694 77.8927 21.9422C78.3238 22.6498 77.9093 23.2732 77.6605 23.8965C77.5942 24.065 77.5113 24.284 77.362 24.3514C76.7651 24.6209 76.4666 25.2274 75.9691 25.5981C75.7369 25.7665 75.4882 25.9519 75.2228 26.154C75.6043 28.0915 75.9359 30.0289 75.9359 32.0168C75.9359 33.988 75.6374 35.8917 75.2228 37.7786C75.8696 38.3851 76.4666 38.9747 77.0967 39.5307C77.7434 40.1035 78.1248 40.8111 78.0419 41.5523C77.9922 41.9567 77.8927 42.3947 77.6771 42.7316C77.0801 43.7088 76.5163 44.7196 75.9359 45.7136C75.2063 46.9434 74.6093 48.2744 73.7636 49.4368C73.6143 50.077 73.0173 50.1276 72.5862 50.3634C72.1219 50.6161 71.6575 50.5487 71.1435 50.3971C70.3806 50.1781 69.651 49.7906 68.855 49.6895C68.7721 49.6727 68.7058 49.5548 68.6229 49.4705C65.754 52.2166 62.5038 54.1709 58.7063 55.2659C58.5239 56.1757 58.3581 57.1191 58.1591 58.0457C57.9601 58.9555 57.3631 59.5283 56.5174 59.7978C56.2023 59.8989 55.8706 60 55.5058 60C53.1842 59.9663 50.8626 59.9663 48.541 60C47.8777 60 47.3139 59.7304 46.7832 59.4272C46.3023 59.1745 46.0204 58.6354 45.9209 58.13C45.7385 57.136 45.5561 56.2094 45.3571 55.2323ZM46.435 40.3899C46.7666 40.2046 47.1481 40.0866 47.1646 39.6823C47.1978 39.0758 47.2807 38.4525 47.1481 37.8797C46.9159 36.9025 46.5013 35.9591 46.2526 34.9819C46.0868 34.3586 45.7219 33.769 45.7385 33.0951C45.2079 31.7641 44.8762 30.3658 44.4285 29.0181C44.0636 27.9061 43.7983 26.7605 43.4003 25.6655C43.1847 25.059 43.135 24.3851 42.737 23.846C42.7038 23.7954 42.6873 23.7617 42.6873 23.7617C42.2395 23.4585 41.7752 23.5596 41.3772 23.5596C41.1451 23.7786 40.9461 23.9639 40.7636 24.1324C40.7471 24.6715 40.3657 25.0927 40.432 25.6149C39.8516 26.929 39.6028 28.3442 39.1219 29.6919C38.8732 30.3827 38.724 31.0903 38.525 31.7978C38.3426 32.5054 37.9446 33.1456 37.9446 33.9037C37.3144 35.3357 36.9993 36.8688 36.535 38.3682C36.4189 38.7389 36.3526 39.0927 36.5848 39.4464C36.6511 39.5475 36.6179 39.6992 36.6179 39.6823C36.8833 39.9687 37.0823 40.1709 37.2481 40.373C37.5632 40.373 37.8948 40.373 38.2431 40.373C38.4752 40.0698 38.7074 39.7834 38.923 39.497C38.8732 38.5367 39.0722 37.8965 39.5034 36.8688C41.1285 36.8688 42.7536 36.8688 44.3787 36.8688C44.5114 37.4079 44.5777 37.9302 44.7601 38.4188C44.843 38.6209 44.9259 38.8231 44.8928 39.0253C44.843 39.6486 45.042 40.1372 45.7385 40.373C45.9043 40.3899 46.1531 40.3899 46.435 40.3899ZM50.3154 40.3899C50.7631 40.3562 51.2772 40.491 51.642 40.1203C51.7747 39.9519 51.8908 39.7834 52.0566 39.5475C52.0566 37.8628 52.0566 36.0939 52.0566 34.3249C53.2671 34.3249 54.4611 34.2744 55.6385 34.3418C56.3515 34.3755 56.9319 34.1564 57.4958 33.8026C57.7611 33.6342 57.9932 33.3815 58.2254 33.1456C58.839 32.5391 59.1375 31.7978 59.154 30.9218C59.154 29.5403 59.154 28.1757 59.154 26.7942C59.154 26.5921 59.1043 26.373 59.0546 26.1709C58.8721 25.4464 58.4907 24.9073 57.9767 24.4356C57.3797 23.8797 56.6832 23.5427 55.8541 23.5427C53.9968 23.5427 52.1561 23.5427 50.2822 23.5427C50.0998 23.7449 49.9174 23.9471 49.7018 24.1492C49.7018 29.3381 49.7018 34.5608 49.7018 39.8002C49.9174 39.9856 50.1164 40.1877 50.3154 40.3899ZM62.255 40.3899C63.3993 40.3899 64.5601 40.3899 65.7043 40.3899C65.9033 40.1877 66.1023 39.9856 66.3013 39.8002C66.3013 39.4801 66.3013 39.1769 66.3013 38.8568C66.3013 38.8231 66.3013 38.8063 66.3013 38.7894C66.0525 38.3177 65.6711 38.0313 65.1736 37.9807C65.1736 33.9543 65.1736 29.9446 65.1736 26.0193C65.5385 25.8339 65.8535 25.6655 66.2184 25.4633C66.2681 25.0253 66.3013 24.5704 66.3344 24.2503C66.0691 23.9471 65.8867 23.728 65.7374 23.5596C64.5435 23.5596 63.3827 23.5596 62.3545 23.5596C62.0726 23.8123 61.8736 23.9976 61.6249 24.2335C61.6746 24.6378 61.741 25.0927 61.7907 25.4801C62.1887 25.6823 62.5038 25.8508 62.7857 26.0024C62.7857 30.012 62.7857 34.0217 62.7857 37.9976C62.6199 38.0313 62.4375 37.9976 62.3711 38.0818C62.139 38.3177 61.741 38.3851 61.6581 38.7726C61.6581 39.1095 61.6581 39.4464 61.6581 39.7834C61.8571 39.9856 62.056 40.1877 62.255 40.3899Z" fill="white"/>
<path d="M43.5087 34.2921C42.5303 34.3258 41.5022 34.3426 40.474 34.3763C40.4409 34.3763 40.3911 34.4437 40.2916 34.528C40.3082 33.4834 40.8886 32.6411 40.9549 31.6808C41.4524 30.8384 41.5022 29.8444 41.8338 28.901C41.9333 29.0021 42.0826 29.1032 42.0826 29.1874C42.0992 29.9118 42.5137 30.5352 42.6464 31.2259C42.7459 31.6976 43.0112 32.1525 43.0775 32.6242C43.1439 33.2307 43.5419 33.6856 43.5087 34.2921Z" fill="white"/>
<path d="M56.8508 31.0222C56.7347 31.2075 56.6352 31.3929 56.5026 31.5613C56.2704 31.8309 55.9719 31.9825 55.5905 31.9657C54.4297 31.9488 53.2689 31.9657 52.075 31.9657C52.075 29.9608 52.075 27.956 52.075 25.9007C53.2855 25.9007 54.5292 25.8838 55.7563 25.9007C56.3367 25.9175 56.8342 26.524 56.8508 27.1642C56.8508 28.2256 56.8508 29.287 56.8508 30.3483C56.8508 30.5842 56.8508 30.8032 56.8508 31.0222Z" fill="white"/>
<path d="M18.5031 80.081C18.5031 80.699 18.3681 81.239 18.0981 81.701C17.8341 82.163 17.4741 82.544 17.0181 82.844C16.5621 83.144 16.0491 83.363 15.4791 83.501L19.1511 89H17.2791L13.8951 83.681H12.2211V89H10.6551V76.607H13.8411C15.3711 76.607 16.5291 76.901 17.3151 77.489C18.1071 78.071 18.5031 78.935 18.5031 80.081ZM16.8291 80.081C16.8291 79.283 16.6011 78.713 16.1451 78.371C15.6891 78.023 14.9811 77.849 14.0211 77.849H12.2211V82.457H14.0211C14.9091 82.457 15.5991 82.277 16.0911 81.917C16.5831 81.551 16.8291 80.939 16.8291 80.081ZM22.6181 84.797C22.6481 85.529 22.7891 86.129 23.0411 86.597C23.2931 87.059 23.6261 87.401 24.0401 87.623C24.4541 87.839 24.9041 87.947 25.3901 87.947C25.8761 87.947 26.3141 87.875 26.7041 87.731C27.1001 87.587 27.5051 87.374 27.9191 87.092L28.6301 88.091C28.1861 88.439 27.6791 88.712 27.1091 88.91C26.5451 89.108 25.9661 89.207 25.3721 89.207C24.4541 89.207 23.6711 89 23.0231 88.586C22.3751 88.172 21.8801 87.596 21.5381 86.858C21.2021 86.114 21.0341 85.253 21.0341 84.275C21.0341 83.315 21.2051 82.463 21.5471 81.719C21.8891 80.975 22.3691 80.39 22.9871 79.964C23.6051 79.538 24.3341 79.325 25.1741 79.325C25.9721 79.325 26.6591 79.514 27.2351 79.892C27.8111 80.264 28.2521 80.798 28.5581 81.494C28.8701 82.184 29.0261 83.009 29.0261 83.969C29.0261 84.131 29.0231 84.284 29.0171 84.428C29.0111 84.566 29.0021 84.689 28.9901 84.797H22.6181ZM25.1921 80.567C24.4901 80.567 23.9021 80.816 23.4281 81.314C22.9601 81.812 22.6931 82.583 22.6271 83.627H27.5681C27.5501 82.613 27.3281 81.851 26.9021 81.341C26.4761 80.825 25.9061 80.567 25.1921 80.567ZM35.4451 87.956C36.1711 87.956 36.7441 87.821 37.1641 87.551C37.5901 87.275 37.8031 86.909 37.8031 86.453C37.8031 86.165 37.7491 85.916 37.6411 85.706C37.5391 85.496 37.3261 85.307 37.0021 85.139C36.6781 84.971 36.1801 84.803 35.5081 84.635C34.8541 84.473 34.2841 84.287 33.7981 84.077C33.3181 83.861 32.9431 83.582 32.6731 83.24C32.4091 82.898 32.2771 82.454 32.2771 81.908C32.2771 81.374 32.4271 80.915 32.7271 80.531C33.0331 80.141 33.4561 79.844 33.9961 79.64C34.5361 79.43 35.1631 79.325 35.8771 79.325C36.6391 79.325 37.3021 79.427 37.8661 79.631C38.4361 79.829 38.9191 80.075 39.3151 80.369L38.6491 81.395C38.2891 81.149 37.8931 80.948 37.4611 80.792C37.0291 80.63 36.5071 80.549 35.8951 80.549C35.1511 80.549 34.6231 80.666 34.3111 80.9C33.9991 81.128 33.8431 81.425 33.8431 81.791C33.8431 82.067 33.9181 82.298 34.0681 82.484C34.2241 82.664 34.4851 82.829 34.8511 82.979C35.2171 83.123 35.7211 83.282 36.3631 83.456C36.9811 83.618 37.5181 83.813 37.9741 84.041C38.4361 84.269 38.7961 84.569 39.0541 84.941C39.3121 85.313 39.4411 85.793 39.4411 86.381C39.4411 87.053 39.2491 87.599 38.8651 88.019C38.4811 88.433 37.9831 88.736 37.3711 88.928C36.7651 89.114 36.1231 89.207 35.4451 89.207C34.5871 89.207 33.8551 89.084 33.2491 88.838C32.6491 88.586 32.1451 88.283 31.7371 87.929L32.6011 86.93C32.9731 87.236 33.3991 87.485 33.8791 87.677C34.3651 87.863 34.8871 87.956 35.4451 87.956ZM50.54 88.523C50.216 88.739 49.823 88.907 49.361 89.027C48.899 89.147 48.446 89.207 48.002 89.207C46.982 89.207 46.196 88.94 45.644 88.406C45.092 87.872 44.816 87.185 44.816 86.345V80.693H42.638V79.523H44.816V77.372L46.328 77.192V79.523H49.604L49.424 80.693H46.328V86.327C46.328 86.855 46.466 87.257 46.742 87.533C47.024 87.809 47.489 87.947 48.137 87.947C48.491 87.947 48.818 87.905 49.118 87.821C49.418 87.737 49.697 87.629 49.955 87.497L50.54 88.523ZM53.791 84.023V82.709H61.009V84.023H53.791ZM70.596 85.841H65.691L64.701 89H63.162L67.194 76.607H69.192L73.224 89H71.586L70.596 85.841ZM66.096 84.545H70.191L68.157 77.921L66.096 84.545ZM79.6339 79.325C80.4739 79.325 81.1429 79.529 81.6409 79.937C82.1449 80.345 82.5079 80.921 82.7299 81.665C82.9519 82.403 83.0629 83.267 83.0629 84.257C83.0629 85.211 82.9279 86.063 82.6579 86.813C82.3939 87.557 81.9919 88.142 81.4519 88.568C80.9119 88.994 80.2309 89.207 79.4089 89.207C78.3709 89.207 77.5369 88.841 76.9069 88.109V92.627L75.3949 92.816V79.523H76.6819L76.8079 80.846C77.1559 80.36 77.5699 79.985 78.0499 79.721C78.5359 79.457 79.0639 79.325 79.6339 79.325ZM79.2739 80.54C78.7519 80.54 78.2899 80.699 77.8879 81.017C77.4919 81.329 77.1649 81.677 76.9069 82.061V86.759C77.1529 87.125 77.4619 87.416 77.8339 87.632C78.2119 87.842 78.6259 87.947 79.0759 87.947C79.8619 87.947 80.4529 87.647 80.8489 87.047C81.2449 86.447 81.4429 85.514 81.4429 84.248C81.4429 83.42 81.3649 82.733 81.2089 82.187C81.0529 81.635 80.8159 81.224 80.4979 80.954C80.1799 80.678 79.7719 80.54 79.2739 80.54ZM90.9849 79.523V87.803H93.6579V89H86.5479V87.803H89.4729V80.72H86.6379V79.523H90.9849ZM89.7789 75.086C90.1149 75.086 90.3819 75.188 90.5799 75.392C90.7839 75.596 90.8859 75.845 90.8859 76.139C90.8859 76.445 90.7839 76.703 90.5799 76.913C90.3819 77.117 90.1149 77.219 89.7789 77.219C89.4609 77.219 89.1999 77.117 88.9959 76.913C88.7919 76.703 88.6899 76.445 88.6899 76.139C88.6899 75.845 88.7919 75.596 88.9959 75.392C89.1999 75.188 89.4609 75.086 89.7789 75.086Z" fill="white"/>
</svg>
