<svg width="60" height="60" viewBox="0 0 60 60" fill="none" xmlns="http://www.w3.org/2000/svg">
<path d="M18.505 5.8575C13.0925 8.3175 9.46 11.2725 8.505 14.225C6.38 17.395 5.545 19.3175 5.545 19.3375C5.5375 19.4275 5.5575 19.2925 5.545 19.395C4.93 21.145 4.365 23.49 4.365 23.5125C3.7025 26.8725 4.01 29.9675 4.01 30C4.01 30.06 4.0825 30.6725 4.1025 30.615C4.8475 28.095 4.57 23.5775 7.0275 18.7475C7.3825 18.2025 11.5675 12.165 22.7425 12.165C24.2575 12.165 25.8425 12.4 27.4575 12.87H27.505C27.6 12.895 29.6825 13.6525 30.4325 14.0275C31.1375 14.3825 32.3975 14.9275 32.4225 14.9275H32.4725C39.2075 18.2325 44.9275 19.2975 44.9925 19.3425C46.672 19.5675 48.187 19.7275 49.5175 19.7275C52.2145 19.7275 54.13 19.1375 55.1675 18.0025C55.7595 17.3525 55.9345 16.6225 55.8995 15.9725C55.9475 13.51 53.8745 10.8075 52.2295 9.0125C50.827 7.3375 49.0795 5.8625 46.3745 4.665C41.2395 2.0925 35.8045 0.9925 30.2395 0.9925C24.4045 1.0175 19.4295 3.0725 19.3945 3.0975L18.505 5.8575ZM37.0525 12.4825C37.7575 12.4825 38.3245 13.0475 38.3245 13.7575C38.3245 14.4675 37.7575 15.0325 37.0525 15.0325C36.3475 15.0325 35.7805 14.4675 35.7805 13.7575C35.7805 13.0475 36.3475 12.4825 37.0525 12.4825ZM20.545 7.6325C20.7325 7.6325 20.8525 7.68 20.8975 7.68L28.964 10.1875L28.657 10.8325L25.0195 9.8275C23.6495 9.4225 22.2295 9.0375 20.9045 8.7425C20.8795 8.7425 20.8295 8.7175 20.7795 8.7175C20.7295 8.7175 20.6595 8.7175 20.6095 8.7425C19.8795 8.9275 17.8745 9.5025 17.2745 10.6625C17.1795 10.9675 17.1795 11.275 17.2745 11.6625C17.2745 11.6875 17.6995 13.0125 18.764 14.375L24.114 14.115L27.6765 13.95L27.3695 14.6825L18.5545 15.1075C17.2345 13.5125 16.7195 11.9075 16.7195 11.9075C16.7195 11.9075 15.453 8.8875 20.2095 7.675C20.3095 7.65 20.4195 7.635 20.545 7.6325ZM48.5025 47.0175C53.9225 44.6625 56.2625 40.6075 56.2625 40.6075C61.349 33.685 59.6125 25.3825 59.6125 25.3825C56.373 32.4325 53.413 34.3825 53.413 34.3825C61.388 22.2475 53.463 14.9325 53.463 14.9325C54.513 18.2025 52.5 24.6175 52.5 24.6175C48.9 31.9925 44.25 35.2925 44.25 35.2925C50.0125 36.3575 54.1875 32.5075 54.1875 32.5075C46.0975 41.33 37.0825 40.9 37.0825 40.9C40.8125 45.0875 46.5325 44.7325 46.5325 44.7325C39.177 46.4575 32.4075 44.0125 26.5825 38.5175C25.5225 37.6425 24.5025 36.6825 23.565 35.6775C23.2025 35.2825 22.865 34.8725 22.5225 34.5125C21.3475 38.9075 26.0475 42.9525 26.0475 42.9525C20.3975 40.5975 17.6975 35.4025 17.6975 35.4025C13.8475 28.8225 14.7575 21.8275 14.7575 21.8275C17.5275 14.4675 25.8075 12.7525 26.0125 12.7075C25.3875 12.4175 24.405 11.98 23.975 11.8075C23.2475 11.4475 21.1275 10.8425 21.1275 10.8425C19.9375 10.5325 18.6525 10.2825 17.3525 10.2825C10.3525 10.2825 6.6625 15.5575 6.6625 15.5575C3.3725 19.25 2.6175 24.0275 2.6175 24.0275C1.69 28.585 2.6875 33.3975 2.6875 33.3975C2.6875 33.3975 2.7825 33.7875 2.8075 33.9375C3.5625 35.7375 4.5325 37.4975 5.6675 39.1525C11.8175 48.3725 22.8025 51.4875 22.8025 51.4875C37.5375 56.4725 47.6775 49.1275 47.6775 49.1275C56.9775 42.7475 58.795 35.4075 58.795 35.4075C51.2725 41.2575 48.0775 40.7075 48.0775 40.7075L48.5025 47.0175ZM3.2675 37.37C2.8025 35.82 2.3725 34.1975 2.3725 34.1975C2.295 33.9525 2.21 33.6675 2.1775 33.3675C2.1775 33.3675 1.8475 30.095 2.555 26.645C2.555 26.645 2.5795 26.55 2.6045 26.4075C2.69 25.8925 2.8375 25.3875 2.9345 25.0275C3.145 24.1075 3.4525 23.0275 3.7525 22.1075C3.7525 22.1075 7.0125 11.3925 18.0675 5.5075C18.0675 5.5075 21.8775 3.4925 27.6225 3.3525C27.2175 2.9525 26.7475 2.5125 26.3525 2.2475C23.6525 0.4475 19.6625 -0.1225 17.4775 1.3225C16.747 1.9775 16.0945 2.6975 15.4425 3.6175C14.6625 4.4675 13.7275 5.1175 12.6325 5.5075C11.695 5.8925 10.7325 5.8125 9.7875 5.9575C8.80 6.1225 7.7775 6.4775 6.9825 7.1175C6.1 7.8275 5.76 8.7725 5.6475 9.9125C5.5525 10.7625 5.5775 11.64 5.53 12.49C5.4075 15.005 4.61 15.7075 2.8675 17.0975C2.115 17.6725 1.4775 18.3975 1.0175 19.22C-0.405 21.72 1.8675 24.2775 1.9925 26.9025C2.0175 27.4425 1.9675 27.9925 1.7825 28.5075C1.5975 29.0525 1.21 29.4325 0.9075 29.8675C0.48 30.4175 0.195 31.0975 0.3125 31.8225C0.43 32.5475 0.81 33.2325 1.1575 33.8725C1.8425 34.9675 2.6975 35.9825 3.585 36.9375C3.615 36.9775 3.69 37.0375 3.72 37.0675L3.54 36.4875L3.2675 37.37Z" fill="white"/>
</svg>
